<mxfile host="app.diagrams.net" modified="2024-05-21T01:39:57.062Z" agent="Mozilla/5.0 (Windows NT 10.0; Win64; x64) AppleWebKit/537.36 (KHTML, like Gecko) Chrome/125.0.0.0 Safari/537.36 Edg/125.0.0.0" etag="BWDYmk3Fcy-9M9evLmfD" version="24.3.1" type="github">
  <diagram name="Page-1" id="v0wfki2_s3h7Ag6scfq3">
    <mxGraphModel dx="1042" dy="577" grid="1" gridSize="10" guides="1" tooltips="1" connect="1" arrows="1" fold="1" page="1" pageScale="1" pageWidth="1100" pageHeight="850" math="0" shadow="0">
      <root>
        <mxCell id="0" />
        <mxCell id="1" parent="0" />
        <mxCell id="bXAx9sY2y7raf-4cAgyS-1" value="" style="shape=hexagon;perimeter=hexagonPerimeter2;whiteSpace=wrap;html=1;fixedSize=1;fillColor=#f5f5f5;fontColor=#333333;strokeColor=#666666;" vertex="1" parent="1">
          <mxGeometry x="270" y="280" width="460" height="158.38" as="geometry" />
        </mxCell>
        <mxCell id="bXAx9sY2y7raf-4cAgyS-2" value="" style="rounded=0;whiteSpace=wrap;html=1;" vertex="1" parent="1">
          <mxGeometry x="350" y="750" width="300" height="60" as="geometry" />
        </mxCell>
        <mxCell id="bXAx9sY2y7raf-4cAgyS-13" style="edgeStyle=orthogonalEdgeStyle;rounded=0;orthogonalLoop=1;jettySize=auto;html=1;entryX=0.75;entryY=0;entryDx=0;entryDy=0;" edge="1" parent="1" source="bXAx9sY2y7raf-4cAgyS-3" target="bXAx9sY2y7raf-4cAgyS-12">
          <mxGeometry relative="1" as="geometry">
            <Array as="points">
              <mxPoint x="750" y="240" />
              <mxPoint x="920" y="240" />
              <mxPoint x="920" y="720" />
              <mxPoint x="600" y="720" />
            </Array>
          </mxGeometry>
        </mxCell>
        <mxCell id="bXAx9sY2y7raf-4cAgyS-14" style="edgeStyle=orthogonalEdgeStyle;rounded=0;orthogonalLoop=1;jettySize=auto;html=1;exitX=1;exitY=0.25;exitDx=0;exitDy=0;entryX=1;entryY=0.5;entryDx=0;entryDy=0;" edge="1" parent="1" source="bXAx9sY2y7raf-4cAgyS-3" target="bXAx9sY2y7raf-4cAgyS-6">
          <mxGeometry relative="1" as="geometry">
            <Array as="points">
              <mxPoint x="790" y="310" />
              <mxPoint x="790" y="270" />
              <mxPoint x="220" y="270" />
              <mxPoint x="220" y="320" />
            </Array>
          </mxGeometry>
        </mxCell>
        <mxCell id="bXAx9sY2y7raf-4cAgyS-15" style="edgeStyle=orthogonalEdgeStyle;rounded=0;orthogonalLoop=1;jettySize=auto;html=1;entryX=0;entryY=0.5;entryDx=0;entryDy=0;" edge="1" parent="1" source="bXAx9sY2y7raf-4cAgyS-3" target="bXAx9sY2y7raf-4cAgyS-8">
          <mxGeometry relative="1" as="geometry" />
        </mxCell>
        <mxCell id="bXAx9sY2y7raf-4cAgyS-16" style="edgeStyle=orthogonalEdgeStyle;rounded=0;orthogonalLoop=1;jettySize=auto;html=1;exitX=1;exitY=0.75;exitDx=0;exitDy=0;entryX=0.5;entryY=1;entryDx=0;entryDy=0;" edge="1" parent="1" source="bXAx9sY2y7raf-4cAgyS-3" target="bXAx9sY2y7raf-4cAgyS-4">
          <mxGeometry relative="1" as="geometry">
            <Array as="points">
              <mxPoint x="800" y="330" />
              <mxPoint x="800" y="270" />
              <mxPoint x="970" y="270" />
              <mxPoint x="970" y="320" />
            </Array>
          </mxGeometry>
        </mxCell>
        <mxCell id="bXAx9sY2y7raf-4cAgyS-3" value="" style="whiteSpace=wrap;html=1;aspect=fixed;fillColor=#d5e8d4;strokeColor=#82b366;" vertex="1" parent="1">
          <mxGeometry x="730" y="300" width="40" height="40" as="geometry" />
        </mxCell>
        <mxCell id="bXAx9sY2y7raf-4cAgyS-4" value="Speaker" style="strokeColor=#dddddd;shadow=1;strokeWidth=1;rounded=1;absoluteArcSize=1;arcSize=2;labelPosition=center;verticalLabelPosition=middle;align=center;verticalAlign=bottom;spacingLeft=0;fontColor=#999999;fontSize=12;whiteSpace=wrap;spacingBottom=2;html=1;rotation=90;" vertex="1" parent="1">
          <mxGeometry x="1160" y="280" width="70" height="80" as="geometry" />
        </mxCell>
        <mxCell id="bXAx9sY2y7raf-4cAgyS-5" value="" style="sketch=0;dashed=0;connectable=0;html=1;fillColor=#757575;strokeColor=none;shape=mxgraph.gcp2.speaker;part=1;rotation=90;" vertex="1" parent="bXAx9sY2y7raf-4cAgyS-4">
          <mxGeometry x="0.5" width="35" height="50" relative="1" as="geometry">
            <mxPoint x="-17.5" y="10" as="offset" />
          </mxGeometry>
        </mxCell>
        <mxCell id="bXAx9sY2y7raf-4cAgyS-6" value="Speaker" style="strokeColor=#dddddd;shadow=1;strokeWidth=1;rounded=1;absoluteArcSize=1;arcSize=2;labelPosition=center;verticalLabelPosition=middle;align=center;verticalAlign=bottom;spacingLeft=0;fontColor=#999999;fontSize=12;whiteSpace=wrap;spacingBottom=2;html=1;" vertex="1" parent="1">
          <mxGeometry x="130" y="277.5" width="70" height="85" as="geometry" />
        </mxCell>
        <mxCell id="bXAx9sY2y7raf-4cAgyS-7" value="" style="sketch=0;dashed=0;connectable=0;html=1;fillColor=#757575;strokeColor=none;shape=mxgraph.gcp2.speaker;part=1;" vertex="1" parent="bXAx9sY2y7raf-4cAgyS-6">
          <mxGeometry x="0.5" width="35" height="50" relative="1" as="geometry">
            <mxPoint x="-17.5" y="10" as="offset" />
          </mxGeometry>
        </mxCell>
        <mxCell id="bXAx9sY2y7raf-4cAgyS-8" value="Speaker" style="strokeColor=#dddddd;shadow=1;strokeWidth=1;rounded=1;absoluteArcSize=1;arcSize=2;labelPosition=center;verticalLabelPosition=middle;align=center;verticalAlign=bottom;spacingLeft=0;fontColor=#999999;fontSize=12;whiteSpace=wrap;spacingBottom=2;html=1;" vertex="1" parent="1">
          <mxGeometry x="820" y="277.5" width="70" height="85" as="geometry" />
        </mxCell>
        <mxCell id="bXAx9sY2y7raf-4cAgyS-9" value="" style="sketch=0;dashed=0;connectable=0;html=1;fillColor=#757575;strokeColor=none;shape=mxgraph.gcp2.speaker;part=1;" vertex="1" parent="bXAx9sY2y7raf-4cAgyS-8">
          <mxGeometry x="0.5" width="35" height="50" relative="1" as="geometry">
            <mxPoint x="-17.5" y="10" as="offset" />
          </mxGeometry>
        </mxCell>
        <mxCell id="bXAx9sY2y7raf-4cAgyS-10" value="Speaker" style="strokeColor=#dddddd;shadow=1;strokeWidth=1;rounded=1;absoluteArcSize=1;arcSize=2;labelPosition=center;verticalLabelPosition=middle;align=center;verticalAlign=bottom;spacingLeft=0;fontColor=#999999;fontSize=12;whiteSpace=wrap;spacingBottom=2;html=1;" vertex="1" parent="1">
          <mxGeometry x="490" y="650" width="70" height="85" as="geometry" />
        </mxCell>
        <mxCell id="bXAx9sY2y7raf-4cAgyS-11" value="" style="sketch=0;dashed=0;connectable=0;html=1;fillColor=#757575;strokeColor=none;shape=mxgraph.gcp2.speaker;part=1;" vertex="1" parent="bXAx9sY2y7raf-4cAgyS-10">
          <mxGeometry x="0.5" width="35" height="50" relative="1" as="geometry">
            <mxPoint x="-17.5" y="10" as="offset" />
          </mxGeometry>
        </mxCell>
        <mxCell id="bXAx9sY2y7raf-4cAgyS-17" style="edgeStyle=orthogonalEdgeStyle;rounded=0;orthogonalLoop=1;jettySize=auto;html=1;entryX=1;entryY=0.5;entryDx=0;entryDy=0;" edge="1" parent="1" source="bXAx9sY2y7raf-4cAgyS-12" target="bXAx9sY2y7raf-4cAgyS-10">
          <mxGeometry relative="1" as="geometry">
            <Array as="points">
              <mxPoint x="570" y="693" />
            </Array>
          </mxGeometry>
        </mxCell>
        <mxCell id="bXAx9sY2y7raf-4cAgyS-12" value="" style="rounded=1;whiteSpace=wrap;html=1;fillColor=#808080;" vertex="1" parent="1">
          <mxGeometry x="510" y="750" width="120" height="60" as="geometry" />
        </mxCell>
      </root>
    </mxGraphModel>
  </diagram>
</mxfile>
